<svg width="209" height="209" viewBox="0 0 209 209" fill="none" xmlns="http://www.w3.org/2000/svg">
<g opacity="0.1">
<circle cx="3.68966" cy="3.68966" r="3.68966" fill="black"/>
<circle cx="3.68966" cy="26.0689" r="3.68966" fill="black"/>
<circle cx="3.68966" cy="48.4482" r="3.68966" fill="black"/>
<circle cx="3.68966" cy="70.8276" r="3.68966" fill="black"/>
<circle cx="3.68966" cy="93.2069" r="3.68966" fill="black"/>
<circle cx="3.68966" cy="115.586" r="3.68966" fill="black"/>
<circle cx="3.68966" cy="137.966" r="3.68966" fill="black"/>
<circle cx="3.68966" cy="160.345" r="3.68966" fill="black"/>
<circle cx="3.68966" cy="182.724" r="3.68966" fill="black"/>
<circle cx="3.68966" cy="205.103" r="3.68966" fill="black"/>
<circle cx="26.069" cy="3.68966" r="3.68966" fill="black"/>
<circle cx="26.069" cy="26.0689" r="3.68966" fill="black"/>
<circle cx="26.069" cy="48.4482" r="3.68966" fill="black"/>
<circle cx="26.069" cy="70.8276" r="3.68966" fill="black"/>
<circle cx="26.069" cy="93.2069" r="3.68966" fill="black"/>
<circle cx="26.069" cy="115.586" r="3.68966" fill="black"/>
<circle cx="26.069" cy="137.966" r="3.68966" fill="black"/>
<circle cx="26.069" cy="160.345" r="3.68966" fill="black"/>
<circle cx="26.069" cy="182.724" r="3.68966" fill="black"/>
<circle cx="26.069" cy="205.103" r="3.68966" fill="black"/>
<circle cx="48.4483" cy="3.68966" r="3.68966" fill="black"/>
<circle cx="48.4483" cy="26.0689" r="3.68966" fill="black"/>
<circle cx="48.4483" cy="48.4482" r="3.68966" fill="black"/>
<circle cx="48.4483" cy="70.8276" r="3.68966" fill="black"/>
<circle cx="48.4483" cy="93.2069" r="3.68966" fill="black"/>
<circle cx="48.4483" cy="115.586" r="3.68966" fill="black"/>
<circle cx="48.4483" cy="137.966" r="3.68966" fill="black"/>
<circle cx="48.4483" cy="160.345" r="3.68966" fill="black"/>
<circle cx="48.4483" cy="182.724" r="3.68966" fill="black"/>
<circle cx="48.4483" cy="205.103" r="3.68966" fill="black"/>
<circle cx="70.8276" cy="3.68966" r="3.68966" fill="black"/>
<circle cx="70.8276" cy="26.0689" r="3.68966" fill="black"/>
<circle cx="70.8276" cy="48.4482" r="3.68966" fill="black"/>
<circle cx="70.8276" cy="70.8276" r="3.68966" fill="black"/>
<circle cx="70.8276" cy="93.2069" r="3.68966" fill="black"/>
<circle cx="70.8276" cy="115.586" r="3.68966" fill="black"/>
<circle cx="70.8276" cy="137.966" r="3.68966" fill="black"/>
<circle cx="70.8276" cy="160.345" r="3.68966" fill="black"/>
<circle cx="70.8276" cy="182.724" r="3.68966" fill="black"/>
<circle cx="70.8276" cy="205.103" r="3.68966" fill="black"/>
<circle cx="93.2069" cy="3.68966" r="3.68966" fill="black"/>
<circle cx="93.2069" cy="26.0689" r="3.68966" fill="black"/>
<circle cx="93.2069" cy="48.4482" r="3.68966" fill="black"/>
<circle cx="93.2069" cy="70.8276" r="3.68966" fill="black"/>
<circle cx="93.2069" cy="93.2069" r="3.68966" fill="black"/>
<circle cx="93.2069" cy="115.586" r="3.68966" fill="black"/>
<circle cx="93.2069" cy="137.966" r="3.68966" fill="black"/>
<circle cx="93.2069" cy="160.345" r="3.68966" fill="black"/>
<circle cx="93.2069" cy="182.724" r="3.68966" fill="black"/>
<circle cx="93.2069" cy="205.103" r="3.68966" fill="black"/>
<circle cx="115.586" cy="3.68966" r="3.68966" fill="black"/>
<circle cx="115.586" cy="26.0689" r="3.68966" fill="black"/>
<circle cx="115.586" cy="48.4482" r="3.68966" fill="black"/>
<circle cx="115.586" cy="70.8276" r="3.68966" fill="black"/>
<circle cx="115.586" cy="93.2069" r="3.68966" fill="black"/>
<circle cx="115.586" cy="115.586" r="3.68966" fill="black"/>
<circle cx="115.586" cy="137.966" r="3.68966" fill="black"/>
<circle cx="115.586" cy="160.345" r="3.68966" fill="black"/>
<circle cx="115.586" cy="182.724" r="3.68966" fill="black"/>
<circle cx="115.586" cy="205.103" r="3.68966" fill="black"/>
<circle cx="137.965" cy="3.68966" r="3.68966" fill="black"/>
<circle cx="137.965" cy="26.0689" r="3.68966" fill="black"/>
<circle cx="137.965" cy="48.4482" r="3.68966" fill="black"/>
<circle cx="137.965" cy="70.8276" r="3.68966" fill="black"/>
<circle cx="137.965" cy="93.2069" r="3.68966" fill="black"/>
<circle cx="137.965" cy="115.586" r="3.68966" fill="black"/>
<circle cx="137.965" cy="137.966" r="3.68966" fill="black"/>
<circle cx="137.965" cy="160.345" r="3.68966" fill="black"/>
<circle cx="137.965" cy="182.724" r="3.68966" fill="black"/>
<circle cx="137.965" cy="205.103" r="3.68966" fill="black"/>
<circle cx="160.345" cy="3.68966" r="3.68966" fill="black"/>
<circle cx="160.345" cy="26.0689" r="3.68966" fill="black"/>
<circle cx="160.345" cy="48.4482" r="3.68966" fill="black"/>
<circle cx="160.345" cy="70.8276" r="3.68966" fill="black"/>
<circle cx="160.345" cy="93.2069" r="3.68966" fill="black"/>
<circle cx="160.345" cy="115.586" r="3.68966" fill="black"/>
<circle cx="160.345" cy="137.966" r="3.68966" fill="black"/>
<circle cx="160.345" cy="160.345" r="3.68966" fill="black"/>
<circle cx="160.345" cy="182.724" r="3.68966" fill="black"/>
<circle cx="160.345" cy="205.103" r="3.68966" fill="black"/>
<circle cx="182.724" cy="3.68966" r="3.68966" fill="black"/>
<circle cx="182.724" cy="26.0689" r="3.68966" fill="black"/>
<circle cx="182.724" cy="48.4482" r="3.68966" fill="black"/>
<circle cx="182.724" cy="70.8276" r="3.68966" fill="black"/>
<circle cx="182.724" cy="93.2069" r="3.68966" fill="black"/>
<circle cx="182.724" cy="115.586" r="3.68966" fill="black"/>
<circle cx="182.724" cy="137.966" r="3.68966" fill="black"/>
<circle cx="182.724" cy="160.345" r="3.68966" fill="black"/>
<circle cx="182.724" cy="182.724" r="3.68966" fill="black"/>
<circle cx="182.724" cy="205.103" r="3.68966" fill="black"/>
<circle cx="205.103" cy="3.68966" r="3.68966" fill="black"/>
<circle cx="205.103" cy="26.0689" r="3.68966" fill="black"/>
<circle cx="205.103" cy="48.4482" r="3.68966" fill="black"/>
<circle cx="205.103" cy="70.8276" r="3.68966" fill="black"/>
<circle cx="205.103" cy="93.2069" r="3.68966" fill="black"/>
<circle cx="205.103" cy="115.586" r="3.68966" fill="black"/>
<circle cx="205.103" cy="137.966" r="3.68966" fill="black"/>
<circle cx="205.103" cy="160.345" r="3.68966" fill="black"/>
<circle cx="205.103" cy="182.724" r="3.68966" fill="black"/>
<circle cx="205.103" cy="205.103" r="3.68966" fill="black"/>
</g>
</svg>
